<svg xmlns="http://www.w3.org/2000/svg" height="48" viewBox="0 96 960 960" width="48"><path d="m479 965-56-50q-106.768-99.121-177.384-170.561Q175 673 133 615T74.5 509.5Q58 462 58 413.902q0-99.24 66.864-166.571Q191.727 180 289 180q56.288 0 104.644 24.5Q442 229 479 276q42-49 88.534-72.5Q614.068 180 669 180q98.973 0 165.986 67.359Q902 314.718 902 414q0 47.97-17 94.985T826.5 614Q785 672 714.517 744.052 644.034 816.103 536 915l-57 50Zm-.5-120q100.736-91.995 165.118-156.998Q708 623 745 575t51.5-86.783q14.5-38.783 14.5-74.311Q811 353 770.639 312q-40.361-41-100.928-41-49.01 0-91.361 32.5Q536 336 508 392h-58q-26.749-56-70.43-88.5-43.681-32.5-90.631-32.5-60.212 0-99.575 40.071Q150 351.143 150 414.316q0 36.771 14.94 75.844 14.94 39.074 52 87.457Q254 626 317 691t161.5 154Zm2.5-288Z"/></svg>